# xmcd
#
# Track frame offsets:
#	150
#	15380
#	32337
#	46226
#	60852
#	77863
#	96333
#	111016
#	127793
#	146280
#	161958
#	177864
#	193130
#	209201
#	221616
#	239281
#	253390
#	269027
#	269882
#	271018
#	271866
#	272887
#	273771
#	274589
#
# Disc length: 3668 seconds
#
# Revision: 2
# Processed by: cddbd v1.5.2PL0 Copyright (c) Steve Scherf et al.
# Submitted via: audiograbber 1.83.01
#
DISCID=6a0e5218
DTITLE=Various Artist - CDX 576
DYEAR=2013
DGENRE=Country
TTITLE0=Cole Swindell - Chillin' It
TTITLE1=Rachel Holder - Lord Help Me
TTITLE2=Angie Johnson - Swagger
TTITLE3=Luke Bryan - That's My Kind Of Night
TTITLE4=Randy Travis - Tonight I'm Playin' Possum
TTITLE5=Blue Sky Riders - Feelin' Brave
TTITLE6=Tommy Roe - Memphis Me
TTITLE7=Colton James - 101 Proof
TTITLE8=Tim Sweeney - Baby I Try For You
TTITLE9=John Maines Jr. - Bad Bad News
TTITLE10=Brent Cobb - Diggin' Holes
TTITLE11=Jared Daniels Band - Foot On The Dashboard
TTITLE12=Skylar Elise - Gypsy Soul You Again
TTITLE13=Chris Cox - Heaven To Win
TTITLE14=Dalton Gray - Knockout Girl
TTITLE15=Maiden Dixie - The Waiting's Done
TTITLE16=Wyatt Turner - You Remind Me Of West Virginia
TTITLE17=Ashton Shepherd - Home Town Country Liner
TTITLE18=Ashton Shepherd - Including My New Single Liner
TTITLE19=Ashton Shepherd - Kickin' Country Liner
TTITLE20=Ashton Shepherd - Super Country Greatest Hits Liner
TTITLE21=Ashton Shepherd - The Best In Country Music Liner
TTITLE22=Ashton Shepherd - Today's Best Country Liner
TTITLE23=Ashton Shepherd - Today's Hot Country Music Liner
EXTD=
EXTT0=
EXTT1=
EXTT2=
EXTT3=
EXTT4=
EXTT5=
EXTT6=
EXTT7=
EXTT8=
EXTT9=
EXTT10=
EXTT11=
EXTT12=
EXTT13=
EXTT14=
EXTT15=
EXTT16=
EXTT17=
EXTT18=
EXTT19=
EXTT20=
EXTT21=
EXTT22=
EXTT23=
PLAYORDER=
